<svg xmlns="http://www.w3.org/2000/svg" version="1.1" xmlns:xlink="http://www.w3.org/1999/xlink" xmlns:svgjs="http://svgjs.dev/svgjs" width="1920" height="1080" preserveAspectRatio="none" viewBox="0 0 1920 1080"><g mask="url(&quot;#SvgjsMask3749&quot;)" fill="none"><rect width="1920" height="1080" x="0" y="0" fill="url(&quot;#SvgjsLinearGradient3750&quot;)"></rect><path d="M88 1080L1168 0L1274.5 0L194.5 1080z" fill="url(&quot;#SvgjsLinearGradient3751&quot;)"></path><path d="M634.6 1080L1714.6 0L2239.6 0L1159.6 1080z" fill="url(&quot;#SvgjsLinearGradient3751&quot;)"></path><path d="M1842 1080L762 0L106.5 0L1186.5 1080z" fill="url(&quot;#SvgjsLinearGradient3752&quot;)"></path><path d="M1277.4 1080L197.4000000000001 0L-5.099999999999909 0L1074.9 1080z" fill="url(&quot;#SvgjsLinearGradient3752&quot;)"></path><path d="M882.1748915058802 1080L1920 42.17489150588017L1920 1080z" fill="url(&quot;#SvgjsLinearGradient3751&quot;)"></path><path d="M0 1080L1037.8251084941198 1080L 0 42.17489150588017z" fill="url(&quot;#SvgjsLinearGradient3752&quot;)"></path></g><defs><mask id="SvgjsMask3749"><rect width="1920" height="1080" fill="#ffffff"></rect></mask><linearGradient x1="50%" y1="100%" x2="50%" y2="0%" gradientUnits="userSpaceOnUse" id="SvgjsLinearGradient3750"><stop stop-color="rgba(14, 42, 71, 1)" offset="0.17"></stop><stop stop-color="rgba(0, 69, 158, 1)" offset="0.47"></stop><stop stop-color="rgba(255, 255, 255, 1)" offset="1"></stop></linearGradient><linearGradient x1="0%" y1="100%" x2="100%" y2="0%" id="SvgjsLinearGradient3751"><stop stop-color="rgba(15, 70, 185, 0.2)" offset="0"></stop><stop stop-opacity="0" stop-color="rgba(15, 70, 185, 0.2)" offset="0.66"></stop></linearGradient><linearGradient x1="100%" y1="100%" x2="0%" y2="0%" id="SvgjsLinearGradient3752"><stop stop-color="rgba(15, 70, 185, 0.2)" offset="0"></stop><stop stop-opacity="0" stop-color="rgba(15, 70, 185, 0.2)" offset="0.66"></stop></linearGradient></defs></svg>